<svg width="137" height="48" viewBox="0 0 137 48" fill="none" xmlns="http://www.w3.org/2000/svg">
<path d="M42.9487 10.1044C42.7346 8.84208 42.1332 7.67758 41.2278 6.77222C40.3225 5.86686 39.158 5.26545 37.8956 5.05129C31.8262 4.02192 20.385 3.55129 11.97 11.97C3.55499 20.3888 4.02187 31.8263 5.05124 37.8957C5.26597 39.1593 5.86876 40.3248 6.77594 41.2303C7.68312 42.1358 8.8497 42.7364 10.1137 42.9488C12.2403 43.3115 14.3934 43.4959 16.5506 43.5C22.5675 43.5 30.06 42 36.03 36.03C44.4469 27.615 43.9781 16.1738 42.9487 10.1044ZM31.3969 7.47942C33.408 7.48651 35.415 7.66213 37.3969 8.00442C38.0459 8.11528 38.6444 8.42509 39.1096 8.89099C39.5749 9.3569 39.8838 9.95587 39.9937 10.605C40.3806 12.8472 40.5501 15.1215 40.5 17.3963L30.6019 7.50004C30.8644 7.48504 31.125 7.48129 31.3969 7.48129V7.47942ZM10.605 39.9938C9.9559 39.8834 9.35715 39.574 8.89158 39.1085C8.42601 38.6429 8.11663 38.0441 8.00624 37.395C7.61939 35.1529 7.44985 32.8786 7.49999 30.6038L17.3962 40.5C15.1215 40.5511 12.8471 40.3816 10.605 39.9938ZM33.9112 33.9113C31.7344 36.0863 27.6731 39.1107 21.2794 40.1494L7.85062 26.7207C8.88937 20.3269 11.9137 16.2657 14.0887 14.0888C16.2637 11.9119 20.325 8.88754 26.7187 7.84879L40.1494 21.2794C39.1106 27.6732 36.0862 31.7344 33.9112 33.9113ZM31.0575 16.9425C31.3386 17.2238 31.4965 17.6052 31.4965 18.0029C31.4965 18.4005 31.3386 18.7819 31.0575 19.0632L28.3687 21.75L29.5575 22.9388C29.7057 23.0759 29.8247 23.2416 29.9074 23.4258C29.99 23.6101 30.0346 23.8091 30.0385 24.011C30.0424 24.2129 30.0054 24.4135 29.9299 24.6008C29.8544 24.7881 29.7418 24.9582 29.599 25.1009C29.4561 25.2436 29.2859 25.3561 29.0986 25.4314C28.9112 25.5068 28.7106 25.5435 28.5087 25.5395C28.3068 25.5354 28.1078 25.4907 27.9236 25.4078C27.7394 25.325 27.5739 25.2059 27.4369 25.0575L26.25 23.8707L23.8706 26.25L25.0594 27.4388C25.2077 27.5758 25.3269 27.7414 25.4097 27.9255C25.4925 28.1097 25.5373 28.3087 25.5413 28.5106C25.5454 28.7125 25.5086 28.9131 25.4332 29.1005C25.3579 29.2878 25.2455 29.458 25.1027 29.6009C24.96 29.7437 24.7899 29.8563 24.6026 29.9318C24.4154 30.0074 24.2148 30.0443 24.0129 30.0404C23.811 30.0365 23.6119 29.9919 23.4277 29.9093C23.2434 29.8266 23.0778 29.7076 22.9406 29.5594L21.75 28.3688L19.0612 31.0575C18.9233 31.2027 18.7578 31.3188 18.5743 31.3989C18.3908 31.4791 18.1932 31.5217 17.993 31.5243C17.7928 31.5268 17.5941 31.4893 17.4086 31.4138C17.2232 31.3384 17.0547 31.2266 16.9131 31.085C16.7715 30.9435 16.6597 30.775 16.5843 30.5895C16.5089 30.4041 16.4713 30.2054 16.4739 30.0052C16.4765 29.805 16.5191 29.6073 16.5992 29.4239C16.6794 29.2404 16.7955 29.0748 16.9406 28.9369L19.6312 26.25L18.4425 25.0613C18.1795 24.7765 18.0369 24.401 18.0447 24.0135C18.0525 23.6259 18.21 23.2564 18.4842 22.9824C18.7584 22.7084 19.1281 22.5512 19.5156 22.5438C19.9032 22.5364 20.2786 22.6793 20.5631 22.9425L21.7519 24.1313L24.1294 21.75L22.9406 20.5613C22.6774 20.2768 22.5345 19.9014 22.5419 19.5138C22.5493 19.1262 22.7065 18.7566 22.9805 18.4824C23.2545 18.2082 23.624 18.0506 24.0115 18.0429C24.3991 18.0351 24.7746 18.1777 25.0594 18.4407L26.25 19.6313L28.9387 16.9425C29.2199 16.662 29.6009 16.5045 29.9981 16.5045C30.3953 16.5045 30.7763 16.662 31.0575 16.9425Z" fill="#DF6C06"/>
<path d="M68.19 8.78125V23H65.2604V8.78125H68.19ZM73.8541 14.8555V17.1406H67.3893V14.8555H73.8541ZM74.5377 8.78125V11.0762H67.3893V8.78125H74.5377ZM75.3971 17.8242V17.6191C75.3971 16.8444 75.5078 16.1315 75.7291 15.4805C75.9505 14.8229 76.2727 14.2533 76.6959 13.7715C77.1191 13.2897 77.6399 12.9154 78.2584 12.6484C78.8769 12.375 79.5865 12.2383 80.3873 12.2383C81.1881 12.2383 81.901 12.375 82.526 12.6484C83.151 12.9154 83.6751 13.2897 84.0983 13.7715C84.5279 14.2533 84.8535 14.8229 85.0748 15.4805C85.2962 16.1315 85.4068 16.8444 85.4068 17.6191V17.8242C85.4068 18.5924 85.2962 19.3053 85.0748 19.9629C84.8535 20.6139 84.5279 21.1836 84.0983 21.6719C83.6751 22.1536 83.1542 22.528 82.5358 22.7949C81.9173 23.0618 81.2076 23.1953 80.4068 23.1953C79.6061 23.1953 78.8932 23.0618 78.2682 22.7949C77.6497 22.528 77.1256 22.1536 76.6959 21.6719C76.2727 21.1836 75.9505 20.6139 75.7291 19.9629C75.5078 19.3053 75.3971 18.5924 75.3971 17.8242ZM78.2096 17.6191V17.8242C78.2096 18.2669 78.2486 18.6803 78.3268 19.0645C78.4049 19.4486 78.5286 19.7871 78.6979 20.0801C78.8736 20.3665 79.1015 20.5911 79.3815 20.7539C79.6614 20.9167 80.0032 20.998 80.4068 20.998C80.7975 20.998 81.1328 20.9167 81.4127 20.7539C81.6927 20.5911 81.9173 20.3665 82.0865 20.0801C82.2558 19.7871 82.3795 19.4486 82.4576 19.0645C82.5423 18.6803 82.5846 18.2669 82.5846 17.8242V17.6191C82.5846 17.1895 82.5423 16.7858 82.4576 16.4082C82.3795 16.0241 82.2525 15.6855 82.0768 15.3926C81.9075 15.0931 81.6829 14.8587 81.4029 14.6895C81.123 14.5202 80.7844 14.4355 80.3873 14.4355C79.9902 14.4355 79.6516 14.5202 79.3717 14.6895C79.0983 14.8587 78.8736 15.0931 78.6979 15.3926C78.5286 15.6855 78.4049 16.0241 78.3268 16.4082C78.2486 16.7858 78.2096 17.1895 78.2096 17.6191ZM86.6861 17.8242V17.6191C86.6861 16.8444 86.7968 16.1315 87.0182 15.4805C87.2395 14.8229 87.5618 14.2533 87.985 13.7715C88.4081 13.2897 88.929 12.9154 89.5475 12.6484C90.166 12.375 90.8756 12.2383 91.6764 12.2383C92.4772 12.2383 93.19 12.375 93.815 12.6484C94.44 12.9154 94.9641 13.2897 95.3873 13.7715C95.817 14.2533 96.1425 14.8229 96.3639 15.4805C96.5852 16.1315 96.6959 16.8444 96.6959 17.6191V17.8242C96.6959 18.5924 96.5852 19.3053 96.3639 19.9629C96.1425 20.6139 95.817 21.1836 95.3873 21.6719C94.9641 22.1536 94.4433 22.528 93.8248 22.7949C93.2063 23.0618 92.4967 23.1953 91.6959 23.1953C90.8951 23.1953 90.1822 23.0618 89.5572 22.7949C88.9387 22.528 88.4147 22.1536 87.985 21.6719C87.5618 21.1836 87.2395 20.6139 87.0182 19.9629C86.7968 19.3053 86.6861 18.5924 86.6861 17.8242ZM89.4986 17.6191V17.8242C89.4986 18.2669 89.5377 18.6803 89.6158 19.0645C89.694 19.4486 89.8177 19.7871 89.9869 20.0801C90.1627 20.3665 90.3906 20.5911 90.6705 20.7539C90.9505 20.9167 91.2923 20.998 91.6959 20.998C92.0865 20.998 92.4218 20.9167 92.7018 20.7539C92.9817 20.5911 93.2063 20.3665 93.3756 20.0801C93.5449 19.7871 93.6686 19.4486 93.7467 19.0645C93.8313 18.6803 93.8736 18.2669 93.8736 17.8242V17.6191C93.8736 17.1895 93.8313 16.7858 93.7467 16.4082C93.6686 16.0241 93.5416 15.6855 93.3658 15.3926C93.1966 15.0931 92.9719 14.8587 92.692 14.6895C92.4121 14.5202 92.0735 14.4355 91.6764 14.4355C91.2792 14.4355 90.9407 14.5202 90.6608 14.6895C90.3873 14.8587 90.1627 15.0931 89.9869 15.3926C89.8177 15.6855 89.694 16.0241 89.6158 16.4082C89.5377 16.7858 89.4986 17.1895 89.4986 17.6191ZM103.6 12.4336V14.4258H97.4479V12.4336H103.6ZM98.9713 9.82617H101.784V19.8164C101.784 20.1224 101.823 20.3568 101.901 20.5195C101.986 20.6823 102.109 20.7962 102.272 20.8613C102.435 20.9199 102.64 20.9492 102.887 20.9492C103.063 20.9492 103.219 20.9427 103.356 20.9297C103.499 20.9102 103.62 20.8906 103.717 20.8711L103.727 22.9414C103.486 23.0195 103.226 23.0814 102.946 23.127C102.666 23.1725 102.357 23.1953 102.018 23.1953C101.4 23.1953 100.859 23.0944 100.397 22.8926C99.9414 22.6842 99.5898 22.3522 99.3424 21.8965C99.095 21.4408 98.9713 20.8418 98.9713 20.0996V9.82617ZM105.202 8H108.014V20.5781L107.731 23H105.202V8ZM114.704 17.6094V17.8145C114.704 18.6022 114.619 19.3249 114.45 19.9824C114.287 20.64 114.033 21.2096 113.688 21.6914C113.343 22.1667 112.913 22.5378 112.399 22.8047C111.891 23.0651 111.292 23.1953 110.602 23.1953C109.958 23.1953 109.398 23.0651 108.922 22.8047C108.454 22.5443 108.06 22.1764 107.741 21.7012C107.422 21.2259 107.165 20.6693 106.969 20.0312C106.774 19.3932 106.628 18.6966 106.53 17.9414V17.4922C106.628 16.737 106.774 16.0404 106.969 15.4023C107.165 14.7643 107.422 14.2077 107.741 13.7324C108.06 13.2572 108.454 12.8893 108.922 12.6289C109.391 12.3685 109.945 12.2383 110.583 12.2383C111.279 12.2383 111.885 12.3717 112.399 12.6387C112.92 12.8991 113.35 13.2702 113.688 13.752C114.033 14.2272 114.287 14.7936 114.45 15.4512C114.619 16.1022 114.704 16.8216 114.704 17.6094ZM111.891 17.8145V17.6094C111.891 17.1797 111.859 16.776 111.794 16.3984C111.735 16.0143 111.631 15.679 111.481 15.3926C111.331 15.0996 111.126 14.8685 110.866 14.6992C110.612 14.5299 110.283 14.4453 109.88 14.4453C109.495 14.4453 109.17 14.5104 108.903 14.6406C108.636 14.7708 108.415 14.9531 108.239 15.1875C108.07 15.4219 107.943 15.7018 107.858 16.0273C107.773 16.3464 107.721 16.6979 107.702 17.082V18.3613C107.721 18.8757 107.806 19.3314 107.956 19.7285C108.112 20.1191 108.346 20.4284 108.659 20.6562C108.978 20.8776 109.391 20.9883 109.899 20.9883C110.296 20.9883 110.625 20.9102 110.885 20.7539C111.146 20.5977 111.348 20.3763 111.491 20.0898C111.641 19.8034 111.745 19.4681 111.803 19.084C111.862 18.6934 111.891 18.2702 111.891 17.8145ZM122.155 20.6172V15.9102C122.155 15.5716 122.1 15.2819 121.989 15.041C121.878 14.7936 121.706 14.6016 121.471 14.4648C121.243 14.3281 120.947 14.2598 120.583 14.2598C120.27 14.2598 120 14.3151 119.772 14.4258C119.544 14.5299 119.368 14.6829 119.245 14.8848C119.121 15.0801 119.059 15.3112 119.059 15.5781H116.247C116.247 15.1289 116.351 14.7025 116.559 14.2988C116.768 13.8952 117.07 13.5404 117.467 13.2344C117.865 12.9219 118.337 12.6777 118.883 12.502C119.437 12.3262 120.055 12.2383 120.739 12.2383C121.559 12.2383 122.288 12.375 122.926 12.6484C123.564 12.9219 124.066 13.332 124.43 13.8789C124.801 14.4258 124.987 15.1094 124.987 15.9297V20.4512C124.987 21.0306 125.023 21.5059 125.094 21.877C125.166 22.2415 125.27 22.5605 125.407 22.834V23H122.565C122.428 22.7135 122.324 22.3555 122.253 21.9258C122.187 21.4896 122.155 21.0534 122.155 20.6172ZM122.526 16.5645L122.546 18.1562H120.973C120.602 18.1562 120.28 18.1986 120.006 18.2832C119.733 18.3678 119.508 18.4883 119.333 18.6445C119.157 18.7943 119.027 18.9701 118.942 19.1719C118.864 19.3737 118.825 19.5951 118.825 19.8359C118.825 20.0768 118.88 20.2949 118.991 20.4902C119.102 20.679 119.261 20.8288 119.469 20.9395C119.678 21.0436 119.922 21.0957 120.202 21.0957C120.625 21.0957 120.993 21.0111 121.305 20.8418C121.618 20.6725 121.859 20.4642 122.028 20.2168C122.204 19.9694 122.295 19.735 122.301 19.5137L123.044 20.7051C122.939 20.972 122.796 21.2487 122.614 21.5352C122.438 21.8216 122.213 22.0918 121.94 22.3457C121.667 22.5931 121.338 22.7982 120.954 22.9609C120.57 23.1172 120.114 23.1953 119.587 23.1953C118.916 23.1953 118.307 23.0618 117.76 22.7949C117.22 22.5215 116.79 22.1471 116.471 21.6719C116.159 21.1901 116.003 20.6432 116.003 20.0312C116.003 19.4779 116.107 18.9863 116.315 18.5566C116.523 18.127 116.829 17.7656 117.233 17.4727C117.643 17.1732 118.154 16.9486 118.766 16.7988C119.378 16.6426 120.088 16.5645 120.895 16.5645H122.526ZM130.124 8V23H127.301V8H130.124ZM135.417 8V23H132.594V8H135.417ZM68.0748 40.248C68.0748 40.127 68.0397 40.0176 67.9693 39.9199C67.899 39.8223 67.7682 39.7324 67.5768 39.6504C67.3893 39.5645 67.1178 39.4863 66.7623 39.416C66.442 39.3457 66.1432 39.2578 65.8658 39.1523C65.5924 39.043 65.3541 38.9121 65.151 38.7598C64.9518 38.6074 64.7955 38.4277 64.6822 38.2207C64.569 38.0098 64.5123 37.7695 64.5123 37.5C64.5123 37.2344 64.569 36.9844 64.6822 36.75C64.7994 36.5156 64.9654 36.3086 65.1803 36.1289C65.399 35.9453 65.6647 35.8027 65.9772 35.7012C66.2936 35.5957 66.649 35.543 67.0436 35.543C67.5943 35.543 68.067 35.6309 68.4615 35.8066C68.86 35.9824 69.1647 36.2246 69.3756 36.5332C69.5904 36.8379 69.6979 37.1855 69.6979 37.5762H68.0104C68.0104 37.4121 67.9752 37.2656 67.9049 37.1367C67.8385 37.0039 67.733 36.9004 67.5885 36.8262C67.4479 36.748 67.2643 36.709 67.0377 36.709C66.8502 36.709 66.6881 36.7422 66.5514 36.8086C66.4147 36.8711 66.3092 36.957 66.235 37.0664C66.1647 37.1719 66.1295 37.2891 66.1295 37.418C66.1295 37.5156 66.149 37.6035 66.1881 37.6816C66.2311 37.7559 66.2994 37.8242 66.3932 37.8867C66.4869 37.9492 66.608 38.0078 66.7565 38.0625C66.9088 38.1133 67.0963 38.1602 67.319 38.2031C67.776 38.2969 68.1842 38.4199 68.5436 38.5723C68.9029 38.7207 69.1881 38.9238 69.399 39.1816C69.61 39.4355 69.7154 39.7695 69.7154 40.1836C69.7154 40.4648 69.6529 40.7227 69.5279 40.957C69.4029 41.1914 69.2233 41.3965 68.9889 41.5723C68.7545 41.7441 68.4733 41.8789 68.1451 41.9766C67.8209 42.0703 67.4557 42.1172 67.0494 42.1172C66.4596 42.1172 65.9596 42.0117 65.5494 41.8008C65.1432 41.5898 64.8346 41.3223 64.6236 40.998C64.4166 40.6699 64.3131 40.334 64.3131 39.9902H65.9127C65.9205 40.2207 65.9791 40.4062 66.0885 40.5469C66.2018 40.6875 66.3443 40.7891 66.5162 40.8516C66.692 40.9141 66.8815 40.9453 67.0846 40.9453C67.3033 40.9453 67.485 40.916 67.6295 40.8574C67.774 40.7949 67.8834 40.7129 67.9576 40.6113C68.0358 40.5059 68.0748 40.3848 68.0748 40.248ZM72.4576 33V42H70.7701V33H72.4576ZM72.2174 38.6074H71.7545C71.7584 38.166 71.817 37.7598 71.9303 37.3887C72.0436 37.0137 72.2057 36.6895 72.4166 36.416C72.6275 36.1387 72.8795 35.9238 73.1725 35.7715C73.4693 35.6191 73.7975 35.543 74.1568 35.543C74.4693 35.543 74.7525 35.5879 75.0065 35.6777C75.2643 35.7637 75.485 35.9043 75.6686 36.0996C75.8561 36.291 76.0006 36.543 76.1022 36.8555C76.2037 37.168 76.2545 37.5469 76.2545 37.9922V42H74.5553V37.9805C74.5553 37.6992 74.5143 37.4785 74.4322 37.3184C74.3541 37.1543 74.2389 37.0391 74.0865 36.9727C73.9381 36.9023 73.7545 36.8672 73.5358 36.8672C73.2936 36.8672 73.0865 36.9121 72.9147 37.002C72.7467 37.0918 72.6119 37.2168 72.5104 37.377C72.4088 37.5332 72.3346 37.7168 72.2877 37.9277C72.2408 38.1387 72.2174 38.3652 72.2174 38.6074ZM77.2682 38.8945V38.7715C77.2682 38.3066 77.3346 37.8789 77.4674 37.4883C77.6002 37.0938 77.7936 36.752 78.0475 36.4629C78.3014 36.1738 78.6139 35.9492 78.985 35.7891C79.3561 35.625 79.7818 35.543 80.2623 35.543C80.7428 35.543 81.1705 35.625 81.5455 35.7891C81.9205 35.9492 82.235 36.1738 82.4889 36.4629C82.7467 36.752 82.942 37.0938 83.0748 37.4883C83.2076 37.8789 83.274 38.3066 83.274 38.7715V38.8945C83.274 39.3555 83.2076 39.7832 83.0748 40.1777C82.942 40.5684 82.7467 40.9102 82.4889 41.2031C82.235 41.4922 81.9225 41.7168 81.5514 41.877C81.1803 42.0371 80.7545 42.1172 80.274 42.1172C79.7936 42.1172 79.3658 42.0371 78.9908 41.877C78.6197 41.7168 78.3053 41.4922 78.0475 41.2031C77.7936 40.9102 77.6002 40.5684 77.4674 40.1777C77.3346 39.7832 77.2682 39.3555 77.2682 38.8945ZM78.9557 38.7715V38.8945C78.9557 39.1602 78.9791 39.4082 79.026 39.6387C79.0729 39.8691 79.1471 40.0723 79.2486 40.248C79.3541 40.4199 79.4908 40.5547 79.6588 40.6523C79.8268 40.75 80.0318 40.7988 80.274 40.7988C80.5084 40.7988 80.7096 40.75 80.8775 40.6523C81.0455 40.5547 81.1803 40.4199 81.2818 40.248C81.3834 40.0723 81.4576 39.8691 81.5045 39.6387C81.5553 39.4082 81.5807 39.1602 81.5807 38.8945V38.7715C81.5807 38.5137 81.5553 38.2715 81.5045 38.0449C81.4576 37.8145 81.3815 37.6113 81.276 37.4355C81.1744 37.2559 81.0397 37.1152 80.8717 37.0137C80.7037 36.9121 80.5006 36.8613 80.2623 36.8613C80.024 36.8613 79.8209 36.9121 79.6529 37.0137C79.4889 37.1152 79.3541 37.2559 79.2486 37.4355C79.1471 37.6113 79.0729 37.8145 79.026 38.0449C78.9791 38.2715 78.9557 38.5137 78.9557 38.7715ZM85.9986 36.8789V44.4375H84.3111V35.6602H85.8756L85.9986 36.8789ZM90.0123 38.7598V38.8828C90.0123 39.3438 89.9576 39.7715 89.8483 40.166C89.7428 40.5605 89.5865 40.9043 89.3795 41.1973C89.1725 41.4863 88.9147 41.7129 88.6061 41.877C88.3014 42.0371 87.9498 42.1172 87.5514 42.1172C87.1647 42.1172 86.8287 42.0391 86.5436 41.8828C86.2584 41.7266 86.0182 41.5078 85.8229 41.2266C85.6315 40.9414 85.4772 40.6113 85.36 40.2363C85.2428 39.8613 85.1529 39.459 85.0904 39.0293V38.707C85.1529 38.2461 85.2428 37.8242 85.36 37.4414C85.4772 37.0547 85.6315 36.7207 85.8229 36.4395C86.0182 36.1543 86.2565 35.9336 86.5377 35.7773C86.8229 35.6211 87.1568 35.543 87.5397 35.543C87.942 35.543 88.2955 35.6191 88.6002 35.7715C88.9088 35.9238 89.1666 36.1426 89.3736 36.4277C89.5846 36.7129 89.7428 37.0527 89.8483 37.4473C89.9576 37.8418 90.0123 38.2793 90.0123 38.7598ZM88.319 38.8828V38.7598C88.319 38.4902 88.2955 38.2422 88.2486 38.0156C88.2057 37.7852 88.1354 37.584 88.0377 37.4121C87.944 37.2402 87.819 37.1074 87.6627 37.0137C87.5104 36.916 87.3248 36.8672 87.1061 36.8672C86.8756 36.8672 86.6783 36.9043 86.5143 36.9785C86.3541 37.0527 86.2233 37.1602 86.1217 37.3008C86.0201 37.4414 85.944 37.6094 85.8932 37.8047C85.8424 38 85.8111 38.2207 85.7994 38.4668V39.2812C85.819 39.5703 85.8736 39.8301 85.9635 40.0605C86.0533 40.2871 86.192 40.4668 86.3795 40.5996C86.567 40.7324 86.8131 40.7988 87.1178 40.7988C87.3404 40.7988 87.5279 40.75 87.6803 40.6523C87.8326 40.5508 87.9557 40.4121 88.0494 40.2363C88.1471 40.0605 88.2154 39.8574 88.2545 39.627C88.2975 39.3965 88.319 39.1484 88.319 38.8828Z" fill="#E1E1E6"/>
</svg>
